<?xml version="1.0" encoding="UTF-8" standalone="no"?>
<!-- Created with Inkscape (http://www.inkscape.org/) -->

<svg
   height="16"
   id="svg7384"
   version="1.1"
   width="16"
   xmlns:xlink="http://www.w3.org/1999/xlink"
   xmlns="http://www.w3.org/2000/svg"
   xmlns:svg="http://www.w3.org/2000/svg"
   xmlns:rdf="http://www.w3.org/1999/02/22-rdf-syntax-ns#"
   xmlns:cc="http://creativecommons.org/ns#"
   xmlns:dc="http://purl.org/dc/elements/1.1/">
  <metadata
     id="metadata90">
    <rdf:RDF>
      <cc:Work
         rdf:about="">
        <dc:format>image/svg+xml</dc:format>
        <dc:type
           rdf:resource="http://purl.org/dc/dcmitype/StillImage" />
        <dc:title>Gnome Symbolic Icon Theme</dc:title>
      </cc:Work>
    </rdf:RDF>
  </metadata>
  <title
     id="title9167">Gnome Symbolic Icon Theme</title>
  <defs
     id="defs7386">
    <linearGradient
       id="linearGradient4703">
      <stop
         style="stop-color:#bebebe;stop-opacity:1;"
         offset="0.45"
         id="stop4699" />
      <stop
         style="stop-color:#bebebe;stop-opacity:0.34999999;"
         offset="0.50"
         id="stop4701" />
    </linearGradient>
    <radialGradient
       xlink:href="#linearGradient4703"
       id="radialGradient4705"
       cx="87.998817"
       cy="205.0002"
       fx="87.998817"
       fy="205.0002"
       r="1"
       gradientTransform="matrix(2.0016734,0,0,6.0258285,-88.146081,-1030.2958)"
       gradientUnits="userSpaceOnUse" />
  </defs>
  <g
     id="layer9"
     style="display:inline"
     transform="translate(-81.0002,-197)">
    <path
       d="m 81.0002,202 2.48437,0 2.96876,-3 0.54687,0.0156 0,12 -0.4753,8.3e-4 L 83.48457,208 81.0002,208 z"
       id="path5491-75"
       style="color:#bebebe;fill:#bebebe;fill-opacity:1;fill-rule:nonzero;stroke:none;stroke-width:1;marker:none;visibility:visible;display:inline;overflow:visible" />
    <path
       d="m 96.00019,205.0002 c 0,-2.81422 -1,-5.17173 -2.58557,-7 l -1.41443,0 0,1.48072 c 1.26466,1.51928 2,3.21936 2,5.51928 0,2.29992 -0.77953,4 -2,5.51928 l 0,1.48072 1.38128,0 c 1.46575,-1.64044 2.61872,-4.18578 2.61872,-7 z"
       id="rect11714-3-9"
       style="opacity:0.35;color:#000000;fill:#bebebe;fill-opacity:1;fill-rule:nonzero;stroke:none;stroke-width:1;marker:none;visibility:visible;display:inline;overflow:visible;enable-background:accumulate" />
    <path
       d="m 93.00019,205.0002 c 0,-2.16664 -0.73878,-4.01982 -2,-5 l -1,0 0,2 c 0.60652,0.78878 1,1.75887 1,3 0,1.24113 -0.39348,2.21938 -1,3 l 0,2 1,0 c 1.2229,-0.99478 2,-2.8734 2,-5 z"
       id="rect11703-1-9"
       style="opacity:0.35;color:#000000;fill:#bebebe;fill-opacity:1;fill-rule:nonzero;stroke:none;stroke-width:1;marker:none;visibility:visible;display:inline;overflow:visible;enable-background:accumulate" />
    <path
       clip-path="none"
       d="m 90.00019,205.0002 c 0,-1.25733 -0.31165,-2.21571 -1,-3 l -1,0 0,3 0,0.375 0,2.625 1,0 c 0.67206,-0.8369 1,-1.74267 1,-3 z"
       id="path6297-6-8"
       mask="none"
       style="font-size:medium;font-style:normal;font-variant:normal;font-weight:normal;font-stretch:normal;text-indent:0;text-align:start;text-decoration:none;line-height:normal;letter-spacing:normal;word-spacing:normal;text-transform:none;direction:ltr;block-progression:tb;writing-mode:lr-tb;text-anchor:start;baseline-shift:baseline;color:#000000;fill:url(#radialGradient4705);fill-opacity:1;stroke:none;stroke-width:2.32782054;marker:none;visibility:visible;display:inline;overflow:visible;enable-background:accumulate;font-family:Sans;-inkscape-font-specification:Sans" />
  </g>
  <g
     id="layer10"
     style="display:inline"
     transform="translate(-81.0002,-197)" />
  <g
     id="layer11"
     transform="translate(-81.0002,-197)" />
  <g
     id="layer13"
     style="display:inline"
     transform="translate(-81.0002,-197)" />
  <g
     id="layer14"
     transform="translate(-81.0002,-197)" />
  <g
     id="layer15"
     style="display:inline"
     transform="translate(-81.0002,-197)" />
  <g
     id="g71291"
     style="display:inline"
     transform="translate(-81.0002,-197)" />
  <g
     id="g4953"
     style="display:inline"
     transform="translate(-81.0002,-197)" />
  <g
     id="layer12"
     style="display:inline"
     transform="translate(-81.0002,-197)" />
</svg>
